<svg aria-hidden="true" xmlns="http://www.w3.org/2000/svg" xmlns:xlink="http://www.w3.org/1999/xlink"><symbol viewBox="0 0 18 19" id="arrow-down" xmlns="http://www.w3.org/2000/svg">
<path d="M14.9401 7.2124L10.0501 12.1024C9.47256 12.6799 8.52756 12.6799 7.95006 12.1024L3.06006 7.2124" stroke-width="1.5" stroke-miterlimit="10" stroke-linecap="round" stroke-linejoin="round"/>
</symbol><symbol viewBox="0 0 40 40" id="burger" xmlns="http://www.w3.org/2000/svg">
<path d="M34.584 12.5H10.834C10.1507 12.5 9.58398 11.9333 9.58398 11.25C9.58398 10.5667 10.1507 10 10.834 10L34.584 10C35.2673 10 35.834 10.5667 35.834 11.25C35.834 11.9333 35.2673 12.5 34.584 12.5Z"/>
<path d="M34.5851 20.833H18.8018C18.1184 20.833 17.5518 20.2663 17.5518 19.583C17.5518 18.8997 18.1184 18.333 18.8018 18.333H34.5851C35.2684 18.333 35.8351 18.8997 35.8351 19.583C35.8351 20.2663 35.2684 20.833 34.5851 20.833Z"/>
<path d="M34.584 29.1665H10.834C10.1507 29.1665 9.58398 28.5998 9.58398 27.9165C9.58398 27.2332 10.1507 26.6665 10.834 26.6665L34.584 26.6665C35.2673 26.6665 35.834 27.2332 35.834 27.9165C35.834 28.5998 35.2673 29.1665 34.584 29.1665Z"/>
</symbol><symbol viewBox="0 0 24 24" id="close" xmlns="http://www.w3.org/2000/svg">
<path d="M4 20L20 4" stroke-width="2" stroke-linecap="round" stroke-linejoin="round"/>
<path d="M20 20L4 4" stroke-width="2" stroke-linecap="round" stroke-linejoin="round"/>
</symbol><symbol viewBox="0 0 24 24" id="discord" xmlns="http://www.w3.org/2000/svg">
<path d="M20.317 4.1556C18.7873 3.45371 17.147 2.9366 15.4319 2.64043C15.4007 2.63471 15.3695 2.64899 15.3534 2.67756C15.1424 3.05278 14.9087 3.54228 14.7451 3.92702C12.9004 3.65085 11.0652 3.65085 9.25832 3.92702C9.09465 3.53373 8.85248 3.05278 8.64057 2.67756C8.62449 2.64995 8.59328 2.63566 8.56205 2.64043C6.84791 2.93565 5.20756 3.45277 3.67693 4.1556C3.66368 4.16131 3.65233 4.17084 3.64479 4.18321C0.533392 8.83157 -0.31895 13.3657 0.0991801 17.8436C0.101072 17.8655 0.11337 17.8864 0.130398 17.8998C2.18321 19.4073 4.17171 20.3225 6.12328 20.9291C6.15451 20.9387 6.18761 20.9272 6.20748 20.9015C6.66913 20.2711 7.08064 19.6064 7.43348 18.9073C7.4543 18.8664 7.43442 18.8178 7.39186 18.8016C6.73913 18.554 6.1176 18.2521 5.51973 17.9093C5.47244 17.8817 5.46865 17.814 5.51216 17.7816C5.63797 17.6874 5.76382 17.5893 5.88396 17.4902C5.90569 17.4721 5.93598 17.4683 5.96153 17.4798C9.88928 19.273 14.1415 19.273 18.023 17.4798C18.0485 17.4674 18.0788 17.4712 18.1015 17.4893C18.2216 17.5883 18.3475 17.6874 18.4742 17.7816C18.5177 17.814 18.5149 17.8817 18.4676 17.9093C17.8697 18.2588 17.2482 18.554 16.5945 18.8007C16.552 18.8169 16.533 18.8664 16.5538 18.9073C16.9143 19.6054 17.3258 20.2701 17.7789 20.9006C17.7978 20.9272 17.8319 20.9387 17.8631 20.9291C19.8241 20.3225 21.8126 19.4073 23.8654 17.8998C23.8834 17.8864 23.8948 17.8664 23.8967 17.8445C24.3971 12.6676 23.0585 8.17066 20.3482 4.18416C20.3416 4.17084 20.3303 4.16131 20.317 4.1556ZM8.02002 15.117C6.8375 15.117 5.86313 14.0314 5.86313 12.6981C5.86313 11.3648 6.8186 10.2791 8.02002 10.2791C9.23087 10.2791 10.1958 11.3743 10.1769 12.6981C10.1769 14.0314 9.22141 15.117 8.02002 15.117ZM15.9947 15.117C14.8123 15.117 13.8379 14.0314 13.8379 12.6981C13.8379 11.3648 14.7933 10.2791 15.9947 10.2791C17.2056 10.2791 18.1705 11.3743 18.1516 12.6981C18.1516 14.0314 17.2056 15.117 15.9947 15.117Z"/>
</symbol><symbol viewBox="0 0 24 24" id="facebook" xmlns="http://www.w3.org/2000/svg">
<g clip-path="url(#eclip0_12_382)">
<path d="M24 12C24 5.37258 18.6274 0 12 0C5.37258 0 0 5.37258 0 12C0 17.9895 4.3882 22.954 10.125 23.8542V15.4688H7.07812V12H10.125V9.35625C10.125 6.34875 11.9166 4.6875 14.6576 4.6875C15.9701 4.6875 17.3438 4.92188 17.3438 4.92188V7.875H15.8306C14.34 7.875 13.875 8.80008 13.875 9.75V12H17.2031L16.6711 15.4688H13.875V23.8542C19.6118 22.954 24 17.9895 24 12Z"/>
</g>
<defs>
<clipPath id="eclip0_12_382">
<rect width="24" height="24"/>
</clipPath>
</defs>
</symbol><symbol viewBox="0 0 24 24" id="instagram" xmlns="http://www.w3.org/2000/svg">
<g clip-path="url(#fclip0_12_383)">
<path d="M12 2.16094C15.2063 2.16094 15.5859 2.175 16.8469 2.23125C18.0188 2.28281 18.6516 2.47969 19.0734 2.64375C19.6313 2.85938 20.0344 3.12188 20.4516 3.53906C20.8734 3.96094 21.1313 4.35938 21.3469 4.91719C21.5109 5.33906 21.7078 5.97656 21.7594 7.14375C21.8156 8.40937 21.8297 8.78906 21.8297 11.9906C21.8297 15.1969 21.8156 15.5766 21.7594 16.8375C21.7078 18.0094 21.5109 18.6422 21.3469 19.0641C21.1313 19.6219 20.8687 20.025 20.4516 20.4422C20.0297 20.8641 19.6313 21.1219 19.0734 21.3375C18.6516 21.5016 18.0141 21.6984 16.8469 21.75C15.5813 21.8062 15.2016 21.8203 12 21.8203C8.79375 21.8203 8.41406 21.8062 7.15313 21.75C5.98125 21.6984 5.34844 21.5016 4.92656 21.3375C4.36875 21.1219 3.96563 20.8594 3.54844 20.4422C3.12656 20.0203 2.86875 19.6219 2.65313 19.0641C2.48906 18.6422 2.29219 18.0047 2.24063 16.8375C2.18438 15.5719 2.17031 15.1922 2.17031 11.9906C2.17031 8.78438 2.18438 8.40469 2.24063 7.14375C2.29219 5.97187 2.48906 5.33906 2.65313 4.91719C2.86875 4.35938 3.13125 3.95625 3.54844 3.53906C3.97031 3.11719 4.36875 2.85938 4.92656 2.64375C5.34844 2.47969 5.98594 2.28281 7.15313 2.23125C8.41406 2.175 8.79375 2.16094 12 2.16094ZM12 0C8.74219 0 8.33438 0.0140625 7.05469 0.0703125C5.77969 0.126563 4.90313 0.332812 4.14375 0.628125C3.35156 0.9375 2.68125 1.34531 2.01563 2.01562C1.34531 2.68125 0.9375 3.35156 0.628125 4.13906C0.332812 4.90313 0.126563 5.775 0.0703125 7.05C0.0140625 8.33437 0 8.74219 0 12C0 15.2578 0.0140625 15.6656 0.0703125 16.9453C0.126563 18.2203 0.332812 19.0969 0.628125 19.8563C0.9375 20.6484 1.34531 21.3188 2.01563 21.9844C2.68125 22.65 3.35156 23.0625 4.13906 23.3672C4.90313 23.6625 5.775 23.8687 7.05 23.925C8.32969 23.9812 8.7375 23.9953 11.9953 23.9953C15.2531 23.9953 15.6609 23.9812 16.9406 23.925C18.2156 23.8687 19.0922 23.6625 19.8516 23.3672C20.6391 23.0625 21.3094 22.65 21.975 21.9844C22.6406 21.3188 23.0531 20.6484 23.3578 19.8609C23.6531 19.0969 23.8594 18.225 23.9156 16.95C23.9719 15.6703 23.9859 15.2625 23.9859 12.0047C23.9859 8.74688 23.9719 8.33906 23.9156 7.05938C23.8594 5.78438 23.6531 4.90781 23.3578 4.14844C23.0625 3.35156 22.6547 2.68125 21.9844 2.01562C21.3188 1.35 20.6484 0.9375 19.8609 0.632812C19.0969 0.3375 18.225 0.13125 16.95 0.075C15.6656 0.0140625 15.2578 0 12 0Z"/>
<path d="M12 5.83594C8.59688 5.83594 5.83594 8.59688 5.83594 12C5.83594 15.4031 8.59688 18.1641 12 18.1641C15.4031 18.1641 18.1641 15.4031 18.1641 12C18.1641 8.59688 15.4031 5.83594 12 5.83594ZM12 15.9984C9.79219 15.9984 8.00156 14.2078 8.00156 12C8.00156 9.79219 9.79219 8.00156 12 8.00156C14.2078 8.00156 15.9984 9.79219 15.9984 12C15.9984 14.2078 14.2078 15.9984 12 15.9984Z"/>
<path d="M19.8469 5.59214C19.8469 6.38902 19.2 7.0312 18.4078 7.0312C17.6109 7.0312 16.9688 6.38433 16.9688 5.59214C16.9688 4.79526 17.6156 4.15308 18.4078 4.15308C19.2 4.15308 19.8469 4.79995 19.8469 5.59214Z"/>
</g>
<defs>
<clipPath id="fclip0_12_383">
<rect width="24" height="24"/>
</clipPath>
</defs>
</symbol><symbol viewBox="0 0 24 24" id="letter" xmlns="http://www.w3.org/2000/svg">
<path d="M17 20.5H7C4 20.5 2 19 2 15.5V8.5C2 5 4 3.5 7 3.5H17C20 3.5 22 5 22 8.5V15.5C22 19 20 20.5 17 20.5Z" stroke-width="1.5" stroke-miterlimit="10" stroke-linecap="round" stroke-linejoin="round"/>
<path d="M17 9L13.87 11.5C12.84 12.32 11.15 12.32 10.12 11.5L7 9" stroke-width="1.5" stroke-miterlimit="10" stroke-linecap="round" stroke-linejoin="round"/>
</symbol><symbol viewBox="0 0 24 24" id="location" xmlns="http://www.w3.org/2000/svg">
<path d="M11.9999 13.4299C13.723 13.4299 15.1199 12.0331 15.1199 10.3099C15.1199 8.58681 13.723 7.18994 11.9999 7.18994C10.2768 7.18994 8.87988 8.58681 8.87988 10.3099C8.87988 12.0331 10.2768 13.4299 11.9999 13.4299Z" stroke-width="1.5"/>
<path d="M3.6202 8.49C5.5902 -0.169998 18.4202 -0.159997 20.3802 8.5C21.5302 13.58 18.3702 17.88 15.6002 20.54C13.5902 22.48 10.4102 22.48 8.3902 20.54C5.6302 17.88 2.4702 13.57 3.6202 8.49Z" stroke-width="1.5"/>
</symbol><symbol viewBox="0 0 24 24" id="phone" xmlns="http://www.w3.org/2000/svg">
<path d="M21.97 18.33C21.97 18.69 21.89 19.06 21.72 19.42C21.55 19.78 21.33 20.12 21.04 20.44C20.55 20.98 20.01 21.37 19.4 21.62C18.8 21.87 18.15 22 17.45 22C16.43 22 15.34 21.76 14.19 21.27C13.04 20.78 11.89 20.12 10.75 19.29C9.6 18.45 8.51 17.52 7.47 16.49C6.44 15.45 5.51 14.36 4.68 13.22C3.86 12.08 3.2 10.94 2.72 9.81C2.24 8.67 2 7.58 2 6.54C2 5.86 2.12 5.21 2.36 4.61C2.6 4 2.98 3.44 3.51 2.94C4.15 2.31 4.85 2 5.59 2C5.87 2 6.15 2.06 6.4 2.18C6.66 2.3 6.89 2.48 7.07 2.74L9.39 6.01C9.57 6.26 9.7 6.49 9.79 6.71C9.88 6.92 9.93 7.13 9.93 7.32C9.93 7.56 9.86 7.8 9.72 8.03C9.59 8.26 9.4 8.5 9.16 8.74L8.4 9.53C8.29 9.64 8.24 9.77 8.24 9.93C8.24 10.01 8.25 10.08 8.27 10.16C8.3 10.24 8.33 10.3 8.35 10.36C8.53 10.69 8.84 11.12 9.28 11.64C9.73 12.16 10.21 12.69 10.73 13.22C11.27 13.75 11.79 14.24 12.32 14.69C12.84 15.13 13.27 15.43 13.61 15.61C13.66 15.63 13.72 15.66 13.79 15.69C13.87 15.72 13.95 15.73 14.04 15.73C14.21 15.73 14.34 15.67 14.45 15.56L15.21 14.81C15.46 14.56 15.7 14.37 15.93 14.25C16.16 14.11 16.39 14.04 16.64 14.04C16.83 14.04 17.03 14.08 17.25 14.17C17.47 14.26 17.7 14.39 17.95 14.56L21.26 16.91C21.52 17.09 21.7 17.3 21.81 17.55C21.91 17.8 21.97 18.05 21.97 18.33Z" stroke-width="1.5" stroke-miterlimit="10"/>
</symbol><symbol viewBox="0 0 24 24" id="youtube" xmlns="http://www.w3.org/2000/svg">
<path d="M23.7609 7.20005C23.7609 7.20005 23.5266 5.54536 22.8047 4.8188C21.8906 3.86255 20.8688 3.85786 20.4 3.80161C17.0438 3.55786 12.0047 3.55786 12.0047 3.55786H11.9953C11.9953 3.55786 6.95625 3.55786 3.6 3.80161C3.13125 3.85786 2.10938 3.86255 1.19531 4.8188C0.473438 5.54536 0.24375 7.20005 0.24375 7.20005C0.24375 7.20005 0 9.14536 0 11.086V12.9047C0 14.8454 0.239062 16.7907 0.239062 16.7907C0.239062 16.7907 0.473437 18.4454 1.19062 19.1719C2.10469 20.1282 3.30469 20.0954 3.83906 20.1985C5.76094 20.3813 12 20.4375 12 20.4375C12 20.4375 17.0438 20.4282 20.4 20.1891C20.8688 20.1329 21.8906 20.1282 22.8047 19.1719C23.5266 18.4454 23.7609 16.7907 23.7609 16.7907C23.7609 16.7907 24 14.85 24 12.9047V11.086C24 9.14536 23.7609 7.20005 23.7609 7.20005ZM9.52031 15.1125V8.36724L16.0031 11.7516L9.52031 15.1125Z"/>
</symbol></svg>